<svg width="32" height="32" viewBox="0 0 32 32" fill="none" xmlns="http://www.w3.org/2000/svg">
<circle cx="16" cy="16" r="16" transform="matrix(-4.37114e-08 1 1 4.37114e-08 0 0)" fill="#8773FF"/>
<path d="M10.899 18.2936C10.8074 18.2028 10.7347 18.0948 10.6851 17.9757C10.6354 17.8567 10.6099 17.729 10.6099 17.6001C10.6099 17.4711 10.6354 17.3434 10.6851 17.2244C10.7347 17.1054 10.8074 16.9973 10.899 16.9065L15.7873 12.0223C15.8782 11.9308 15.9863 11.8581 16.1054 11.8085C16.2246 11.7589 16.3524 11.7334 16.4814 11.7334C16.6105 11.7334 16.7383 11.7589 16.8574 11.8085C16.9765 11.8581 17.0847 11.9308 17.1755 12.0223L22.0638 16.9065C22.1554 16.9973 22.2282 17.1054 22.2778 17.2244C22.3274 17.3434 22.353 17.4711 22.353 17.6001C22.353 17.729 22.3274 17.8567 22.2778 17.9757C22.2282 18.0948 22.1554 18.2028 22.0638 18.2936C21.9729 18.3852 21.8648 18.4578 21.7456 18.5074C21.6265 18.557 21.4987 18.5826 21.3697 18.5826C21.2406 18.5826 21.1128 18.557 20.9937 18.5074C20.8745 18.4578 20.7664 18.3852 20.6755 18.2936L16.4814 14.0932L12.2873 18.2936C12.1964 18.3852 12.0883 18.4578 11.9692 18.5074C11.85 18.557 11.7222 18.5826 11.5932 18.5826C11.4641 18.5826 11.3363 18.557 11.2172 18.5074C11.0981 18.4578 10.9899 18.3852 10.899 18.2936Z" fill="white"/>
</svg>
