<svg width="32" height="32" viewBox="0 0 32 32" fill="none" xmlns="http://www.w3.org/2000/svg">
<circle cx="16" cy="16" r="16" transform="matrix(1.19249e-08 -1 -1 -1.19249e-08 32 32)" fill="black"/>
<path d="M21.0446 13.7064C21.1361 13.7972 21.2088 13.9052 21.2584 14.0243C21.308 14.1433 21.3335 14.271 21.3335 14.3999C21.3335 14.5289 21.308 14.6566 21.2584 14.7756C21.2088 14.8946 21.1361 15.0027 21.0446 15.0935L16.1604 19.9777C16.0696 20.0692 15.9615 20.1419 15.8425 20.1915C15.7235 20.2411 15.5958 20.2666 15.4668 20.2666C15.3379 20.2666 15.2102 20.2411 15.0912 20.1915C14.9721 20.1419 14.8641 20.0692 14.7733 19.9777L9.88911 15.0935C9.79755 15.0027 9.72488 14.8946 9.67529 14.7756C9.62569 14.6566 9.60016 14.5289 9.60016 14.3999C9.60016 14.271 9.62569 14.1433 9.67529 14.0243C9.72488 13.9052 9.79755 13.7972 9.88911 13.7064C9.97992 13.6148 10.088 13.5422 10.207 13.4926C10.326 13.443 10.4537 13.4174 10.5827 13.4174C10.7116 13.4174 10.8393 13.443 10.9583 13.4926C11.0774 13.5422 11.1854 13.6148 11.2762 13.7064L15.4668 17.9068L19.6574 13.7064C19.7483 13.6148 19.8563 13.5422 19.9753 13.4926C20.0944 13.443 20.222 13.4174 20.351 13.4174C20.48 13.4174 20.6076 13.443 20.7267 13.4926C20.8457 13.5422 20.9537 13.6148 21.0446 13.7064Z" fill="white"/>
</svg>
