<svg width="9" height="4" viewBox="0 0 9 4" fill="none" xmlns="http://www.w3.org/2000/svg">
<path d="M8.30299 0.168748C8.36542 0.221782 8.41496 0.284878 8.44878 0.354397C8.48259 0.423915 8.5 0.498481 8.5 0.573791C8.5 0.649102 8.48259 0.723667 8.44878 0.793186C8.41496 0.862705 8.36542 0.925801 8.30299 0.978834L4.97288 3.83125C4.91096 3.88472 4.8373 3.92716 4.75614 3.95613C4.67498 3.98509 4.58792 4 4.5 4C4.41208 4 4.32502 3.98509 4.24386 3.95613C4.1627 3.92716 4.08904 3.88472 4.02712 3.83125L0.697009 0.978834C0.634584 0.9258 0.585034 0.862705 0.551221 0.793186C0.517408 0.723667 0.5 0.649102 0.5 0.573791C0.5 0.498481 0.517408 0.423915 0.551221 0.354396C0.585034 0.284878 0.634584 0.221782 0.697009 0.168748C0.758925 0.115277 0.832587 0.072837 0.913748 0.0438742C0.994909 0.0149116 1.08196 -8.84592e-08 1.16988 -8.74108e-08C1.25781 -8.63623e-08 1.34486 0.0149116 1.42602 0.0438742C1.50718 0.072837 1.58084 0.115277 1.64276 0.168748L4.5 2.62183L7.35724 0.168748C7.41915 0.115278 7.49282 0.0728371 7.57398 0.0438743C7.65514 0.0149116 7.74219 -9.03677e-09 7.83012 -7.9883e-09C7.91804 -6.93983e-09 8.00509 0.0149116 8.08625 0.0438743C8.16741 0.0728371 8.24108 0.115278 8.30299 0.168748Z" fill="black"/>
</svg>
