<svg width="32" height="32" viewBox="0 0 32 32" fill="none" xmlns="http://www.w3.org/2000/svg">
<circle cx="16" cy="16" r="16" fill="black"/>
<g clip-path="url(#clip0_446_866)">
<path d="M19.75 8.5H12.25C10.1789 8.5 8.5 10.1789 8.5 12.25V19.75C8.5 21.8211 10.1789 23.5 12.25 23.5H19.75C21.8211 23.5 23.5 21.8211 23.5 19.75V12.25C23.5 10.1789 21.8211 8.5 19.75 8.5Z" stroke="white" stroke-width="1.25" stroke-linecap="round" stroke-linejoin="round"/>
<path d="M20.1248 11.875H20.1323M18.9998 15.5275C19.0923 16.1517 18.9857 16.7892 18.6951 17.3493C18.4045 17.9094 17.9446 18.3636 17.381 18.6473C16.8174 18.931 16.1786 19.0297 15.5556 18.9294C14.9326 18.8292 14.3571 18.5351 13.9109 18.0889C13.4647 17.6427 13.1706 17.0672 13.0703 16.4442C12.9701 15.8212 13.0688 15.1824 13.3525 14.6188C13.6362 14.0551 14.0904 13.5953 14.6505 13.3047C15.2106 13.0141 15.8481 12.9074 16.4723 13C17.109 13.0944 17.6984 13.3911 18.1536 13.8462C18.6087 14.3014 18.9054 14.8908 18.9998 15.5275Z" stroke="white" stroke-width="1.25" stroke-linecap="round" stroke-linejoin="round"/>
</g>
<defs>
<clipPath id="clip0_446_866">
<rect width="18" height="18" fill="white" transform="translate(7 7)"/>
</clipPath>
</defs>
</svg>
