<svg width="32" height="32" viewBox="0 0 32 32" fill="none" xmlns="http://www.w3.org/2000/svg">
<circle cx="16" cy="16" r="16" fill="black"/>
<path d="M12.9692 11.4268C12.8066 11.4029 12.6407 11.4357 12.4994 11.5195H12.4871C12.159 11.712 11.8632 11.9544 11.6112 12.2396C11.4012 12.482 11.2875 12.727 11.2577 12.9633C11.2402 13.1033 11.2525 13.245 11.2936 13.3789L11.3094 13.3876C11.5456 14.0815 11.8536 14.7491 12.2299 15.3774C12.7152 16.2597 13.3122 17.0758 14.0061 17.8055L14.0271 17.8353L14.0604 17.8598L14.0805 17.8834L14.105 17.9044C14.8373 18.6003 15.6553 19.2001 16.5392 19.6894C17.5499 20.2398 18.1632 20.4996 18.5316 20.6081V20.6134C18.6392 20.6466 18.7372 20.6615 18.8361 20.6615C19.15 20.639 19.4472 20.5114 19.6796 20.2993C19.964 20.0473 20.2046 19.7506 20.3919 19.4208V19.4146C20.5677 19.0821 20.5082 18.7689 20.2545 18.5563C19.7452 18.1104 19.194 17.7148 18.6086 17.375C18.2166 17.1624 17.8185 17.291 17.6575 17.5063L17.3136 17.9403C17.1369 18.1555 16.8166 18.1258 16.8166 18.1258L16.8079 18.131C14.4182 17.5211 13.7804 15.1018 13.7804 15.1018C13.7804 15.1018 13.7506 14.7728 13.972 14.6048L14.4025 14.2583C14.609 14.0903 14.7525 13.693 14.5311 13.301C14.1921 12.716 13.7974 12.1651 13.3525 11.656C13.2552 11.5365 13.1189 11.455 12.9675 11.4259M17.0074 10.375C16.8913 10.375 16.7801 10.4211 16.698 10.5031C16.616 10.5852 16.5699 10.6965 16.5699 10.8125C16.5699 10.9285 16.616 11.0398 16.698 11.1219C16.7801 11.2039 16.8913 11.25 17.0074 11.25C18.1134 11.25 19.0321 11.6114 19.7592 12.3044C20.1329 12.6833 20.4242 13.1321 20.615 13.6239C20.8066 14.1165 20.8941 14.6424 20.8714 15.1691C20.8665 15.2852 20.9079 15.3984 20.9865 15.4839C21.0651 15.5694 21.1745 15.6201 21.2905 15.625C21.4065 15.6299 21.5197 15.5885 21.6052 15.5099C21.6907 15.4313 21.7415 15.3219 21.7464 15.2059C21.7725 14.558 21.665 13.9117 21.4305 13.3071C21.195 12.6995 20.8363 12.1472 20.377 11.6849L20.3682 11.6761C19.4661 10.8143 18.3251 10.375 17.0074 10.375Z" fill="white"/>
<path d="M16.9771 11.8134C16.861 11.8134 16.7497 11.8595 16.6677 11.9415C16.5856 12.0236 16.5396 12.1348 16.5396 12.2509C16.5396 12.3669 16.5856 12.4782 16.6677 12.5602C16.7497 12.6423 16.861 12.6884 16.9771 12.6884H16.9919C17.7899 12.7453 18.3709 13.0113 18.7778 13.4479C19.1952 13.8976 19.4113 14.4568 19.3947 15.148C19.392 15.264 19.4355 15.3764 19.5157 15.4603C19.5959 15.5442 19.7061 15.5929 19.8221 15.5956C19.9381 15.5982 20.0505 15.5547 20.1344 15.4745C20.2184 15.3944 20.267 15.2842 20.2697 15.1681C20.2907 14.2608 19.9984 13.4776 19.4192 12.8529V12.8511C18.8268 12.2159 18.0139 11.8799 17.0357 11.8142L17.0208 11.8125L16.9771 11.8134Z" fill="white"/>
<path d="M16.9603 13.279C16.9018 13.2739 16.8428 13.2806 16.7869 13.2987C16.731 13.3168 16.6793 13.346 16.6349 13.3846C16.5906 13.4231 16.5544 13.4702 16.5286 13.5231C16.5029 13.5759 16.488 13.6334 16.485 13.6921C16.4819 13.7508 16.4907 13.8095 16.5108 13.8647C16.531 13.9199 16.562 13.9705 16.6022 14.0135C16.6423 14.0564 16.6906 14.0909 16.7444 14.1147C16.7981 14.1386 16.8561 14.1513 16.9148 14.1523C17.2806 14.1715 17.5142 14.2818 17.6612 14.4297C17.8091 14.5784 17.9193 14.8173 17.9395 15.1909C17.9405 15.2496 17.9534 15.3075 17.9774 15.3611C18.0013 15.4148 18.0358 15.463 18.0788 15.503C18.1218 15.543 18.1724 15.574 18.2276 15.594C18.2828 15.6141 18.3414 15.6228 18.4001 15.6197C18.4587 15.6165 18.5161 15.6017 18.5689 15.5759C18.6217 15.5501 18.6687 15.514 18.7072 15.4696C18.7457 15.4253 18.7749 15.3737 18.793 15.3178C18.8111 15.262 18.8178 15.203 18.8127 15.1445C18.7847 14.6195 18.6202 14.1558 18.2833 13.8145C17.9447 13.4733 17.4836 13.307 16.9603 13.279Z" fill="white"/>
<path fill-rule="evenodd" clip-rule="evenodd" d="M12.1834 8.08593C14.9678 7.46354 17.8551 7.46354 20.6394 8.08593L20.9361 8.15155C21.7498 8.33397 22.4971 8.73818 23.0951 9.31937C23.6931 9.90055 24.1185 10.636 24.3241 11.4442C25.0315 14.2291 25.0315 17.1467 24.3241 19.9317C24.1185 20.7399 23.6931 21.4753 23.0951 22.0565C22.4971 22.6377 21.7498 23.0419 20.9361 23.2243L20.6386 23.2899C18.8946 23.6793 17.1053 23.8263 15.3212 23.7266L12.9998 25.8038C12.9123 25.8822 12.8054 25.9356 12.6901 25.9585C12.5749 25.9814 12.4557 25.973 12.3448 25.9341C12.234 25.8953 12.1356 25.8273 12.06 25.7374C11.9843 25.6476 11.9342 25.539 11.9148 25.4232L11.5307 23.1289C10.7943 22.8994 10.129 22.485 9.59825 21.9253C9.0675 21.3656 8.68899 20.6792 8.49882 19.9317C7.79141 17.1467 7.79141 14.2291 8.49882 11.4442C8.70439 10.636 9.12977 9.90055 9.72779 9.31937C10.3258 8.73818 11.0731 8.33397 11.8868 8.15155L12.1834 8.08593ZM20.3533 9.36605C17.7574 8.78576 15.0654 8.78576 12.4696 9.36605L12.1721 9.43255C11.5954 9.56221 11.0659 9.84893 10.6421 10.261C10.2183 10.673 9.91687 11.1943 9.77107 11.7671C9.11744 14.3401 9.11744 17.0357 9.77107 19.6088C9.91694 20.1817 10.2185 20.7031 10.6425 21.1151C11.0664 21.5271 11.5961 21.8138 12.1729 21.9433L12.2517 21.9608C12.3791 21.9893 12.4951 22.0551 12.5849 22.1499C12.6746 22.2447 12.7341 22.3641 12.7557 22.4928L13.0129 24.0311L14.6509 22.5654C14.7164 22.5067 14.7929 22.4618 14.876 22.4332C14.9591 22.4046 15.0471 22.3931 15.1348 22.3992C16.884 22.5227 18.6418 22.3915 20.3533 22.0098L20.6499 21.9433C21.2268 21.8138 21.7565 21.5271 22.1804 21.1151C22.6043 20.7031 22.9059 20.1817 23.0518 19.6088C23.7046 17.0363 23.7046 14.3404 23.0518 11.7671C22.9059 11.1942 22.6043 10.6728 22.1804 10.2608C21.7565 9.84872 21.2268 9.56207 20.6499 9.43255L20.3533 9.36605Z" fill="white"/>
</svg>
