<svg width="32" height="32" viewBox="0 0 32 32" fill="none" xmlns="http://www.w3.org/2000/svg">
<circle cx="16" cy="16" r="16" fill="black"/>
<path d="M24.0987 11.908C24.2216 11.493 24.0987 11.1875 23.5077 11.1875H21.5521C21.054 11.1875 20.8249 11.4498 20.7021 11.742C20.7021 11.742 19.706 14.1691 18.2981 15.743C17.8433 16.1979 17.6341 16.3439 17.3851 16.3439C17.2622 16.3439 17.0729 16.1979 17.0729 15.7828V11.908C17.0729 11.41 16.9335 11.1875 16.5218 11.1875H13.4472C13.1351 11.1875 12.9491 11.4199 12.9491 11.6357C12.9491 12.1072 13.653 12.2168 13.7261 13.5449V16.427C13.7261 17.0578 13.6132 17.174 13.3642 17.174C12.7001 17.174 11.0864 14.7369 10.1302 11.9479C9.9376 11.4066 9.74834 11.1875 9.24697 11.1875H7.29131C6.7335 11.1875 6.62061 11.4498 6.62061 11.742C6.62061 12.26 7.28467 14.8332 9.71182 18.2332C11.3288 20.5541 13.6065 21.8125 15.6784 21.8125C16.9235 21.8125 17.0763 21.5336 17.0763 21.0521C17.0763 18.8342 16.9634 18.625 17.5876 18.625C17.8765 18.625 18.3745 18.7711 19.5366 19.89C20.8647 21.2182 21.0839 21.8125 21.8276 21.8125H23.7833C24.3411 21.8125 24.6233 21.5336 24.4606 20.9824C24.0888 19.8236 21.5753 17.4396 21.4624 17.2803C21.1735 16.9084 21.2565 16.7424 21.4624 16.4104C21.4657 16.407 23.853 13.0469 24.0987 11.908Z" fill="white"/>
</svg>
